<!-- Instagram Icon -->
<svg width="20" height="20" viewBox="0 0 20 20" fill="none" xmlns="http://www.w3.org/2000/svg">
  <path d="M10 6.875C8.27411 6.875 6.875 8.27411 6.875 10C6.875 11.7259 8.27411 13.125 10 13.125C11.7259 13.125 13.125 11.7259 13.125 10C13.125 8.27411 11.7259 6.875 10 6.875Z" fill="white"/>
  <path fill-rule="evenodd" clip-rule="evenodd" d="M5.625 2.5C3.89911 2.5 2.5 3.89911 2.5 5.625V14.375C2.5 16.1009 3.89911 17.5 5.625 17.5H14.375C16.1009 17.5 17.5 16.1009 17.5 14.375V5.625C17.5 3.89911 16.1009 2.5 14.375 2.5H5.625ZM10 5.625C7.58375 5.625 5.625 7.58375 5.625 10C5.625 12.4162 7.58375 14.375 10 14.375C12.4162 14.375 14.375 12.4162 14.375 10C14.375 7.58375 12.4162 5.625 10 5.625ZM15 6.25C15.5178 6.25 15.9375 5.83027 15.9375 5.3125C15.9375 4.79473 15.5178 4.375 15 4.375C14.4822 4.375 14.0625 4.79473 14.0625 5.3125C14.0625 5.83027 14.4822 6.25 15 6.25Z" fill="white"/>
</svg>
