<!-- LinkedIn Icon -->
<svg width="20" height="20" viewBox="0 0 20 20" fill="none" xmlns="http://www.w3.org/2000/svg">
  <path d="M16.875 2.5H3.125C2.77982 2.5 2.5 2.77982 2.5 3.125V16.875C2.5 17.2202 2.77982 17.5 3.125 17.5H16.875C17.2202 17.5 17.5 17.2202 17.5 16.875V3.125C17.5 2.77982 17.2202 2.5 16.875 2.5ZM6.875 15H5V8.125H6.875V15ZM5.9375 7.1875C5.41973 7.1875 5 6.76777 5 6.25C5 5.73223 5.41973 5.3125 5.9375 5.3125C6.45527 5.3125 6.875 5.73223 6.875 6.25C6.875 6.76777 6.45527 7.1875 5.9375 7.1875ZM15 15H13.125V11.6875C13.125 10.9375 13.125 9.9375 12.0625 9.9375C11 9.9375 10.8125 10.8125 10.8125 11.625V15H8.9375V8.125H10.75V8.9375C11 8.4375 11.6875 7.9375 12.6875 7.9375C14.5625 7.9375 15 9.1875 15 10.8125V15Z" fill="white"/>
</svg>
